<svg t="1622633067825" class="icon" viewBox="0 0 1024 1024" version="1.1" xmlns="http://www.w3.org/2000/svg" p-id="2910" width="200" height="200"><path d="M262 597c-22.1-22.1-22.1-57.9 0-80l281.9-281.9c-70.7-16.9-160.9-0.4-153.3-7.9l-310 310c-22.1 22.1-22.1 57.9 0 80 0 0 119.6 36.2 135.5 52.1 11.4 11.3 54.5 137.9 54.5 137.9 22.1 22.1 57.9 22.1 80 0l94.3-94.3c-0.2-0.3-0.5-0.6-0.7-0.8C428.2 696.2 262 597 262 597z" fill="#ffffff" p-id="2911"></path><path d="M902 237.8c-60-60-222.5-27.5-212.5-37.5l-310 310c-22.1 22.1-22.1 57.9 0 80 0 0 119.6 36.2 135.5 52.1 11.4 11.4 54.5 137.9 54.5 137.9 22.1 22.1 57.9 22.1 80 0l310-310c-10 10 29.2-145.8-57.5-232.5z m-90 164.1c-32.2 0-58.3-26.1-58.3-58.2 0-32.2 26.1-58.3 58.3-58.3s58.3 26.1 58.3 58.3c-0.1 32.1-26.2 58.2-58.3 58.2z" fill="#ffffff" p-id="2912"></path></svg>