<svg t="1622628953051" class="icon" viewBox="0 0 1024 1024" version="1.1" xmlns="http://www.w3.org/2000/svg" p-id="2769" width="200" height="200"><path d="M724.3 261.7c-73.5-73.5-272.6-33.7-260.3-46L84.3 595.4c-27.1 27.1-27.1 70.9 0 98L317 926.1c27.1 27.1 70.9 27.1 98 0l379.7-379.7c-12.3 12.3 35.7-178.6-70.4-284.7z m-118.4 193c-39.4 0-71.4-32-71.4-71.4s32-71.3 71.4-71.3 71.4 31.9 71.4 71.3-32 71.4-71.4 71.4z m185.6-297.8c-27.4 0-49.6 22.2-49.6 49.6s22.2 49.6 49.6 49.6c27.4 0 49.6-22.2 49.6-49.6s-22.3-49.6-49.6-49.6z m118.9-79.3c-27.4 0-49.6 22.2-49.6 49.6s22.2 49.6 49.6 49.6c27.4 0 49.6-22.2 49.6-49.6s-22.2-49.6-49.6-49.6z" p-id="2770"></path></svg>