<svg t="1622543521062" class="icon" viewBox="0 0 1025 1024" version="1.1" xmlns="http://www.w3.org/2000/svg" p-id="1348" width="200" height="200"><path d="M394.478963 68.699595C391.915961 71.262667 387.768426 71.263108 385.193931 68.688561L955.293678 638.801373C952.747132 636.254755 952.746778 632.054325 955.259074 629.541976L629.52478 955.283721C632.068308 952.74014 636.205286 952.737298 638.78626 955.318325L68.686495 385.20553C71.264715 387.783804 71.262455 391.923518 68.697529 394.488497L168.767753 294.415996C182.557131 280.626282 182.556884 258.269007 168.76717 244.479612 154.977474 230.690233 132.6202 230.690481 118.830804 244.480194L18.760598 344.552695C-6.240591 369.55445-6.262784 410.128402 18.749564 435.141332L588.849311 1005.254126C613.862912 1030.26831 654.441348 1030.240468 679.461729 1005.219522L1005.196023 679.477778C1030.263932 654.409287 1030.260524 613.896051 1005.230627 588.865571L435.13088 18.752759C410.123758-6.254927 369.555862-6.250602 344.542031 18.763811L244.471808 118.836312C230.68243 132.626008 230.682677 154.983283 244.472391 168.772679 258.262087 182.562057 280.619361 182.56181 294.408757 168.772096L394.478963 68.699595ZM209.594386 259.537761C223.383782 273.327457 245.741056 273.327722 259.530752 259.538326 273.320466 245.748948 273.320713 223.391673 259.531317 209.60196L76.309133 26.375574C62.519755 12.585878 40.162481 12.585613 26.372767 26.375009 12.583071 40.164405 12.582806 62.521679 26.372202 76.311375L209.594386 259.537761ZM460.928671 346.453769C460.928671 283.224929 409.672404 231.967497 346.4442 231.967497 283.215996 231.967497 231.959746 283.224929 231.959746 346.453769 231.959746 409.682609 283.215996 460.940041 346.4442 460.940041 409.672404 460.940041 460.928671 409.682609 460.928671 346.453769ZM302.580436 346.453769C302.580436 322.227288 322.219096 302.588186 346.4442 302.588186 370.669321 302.588186 390.307981 322.227288 390.307981 346.453769 390.307981 370.680249 370.669321 390.319351 346.4442 390.319351 322.219096 390.319351 302.580436 370.680249 302.580436 346.453769Z" p-id="1349" fill="#ffffff"></path></svg>