<svg t="1619765092365" class="icon" viewBox="0 0 1060 1024" version="1.1" xmlns="http://www.w3.org/2000/svg" p-id="2049" width="200" height="200"><path d="M231.178297 89.347853a276.390288 276.390288 0 0 1 69.5241 52.462971 586.476306 586.476306 0 0 0 56.728254 51.183387h298.569756a634.673995 634.673995 0 0 0 50.756858-45.211992 232.88441 232.88441 0 0 1 73.789383-56.301725c29.856976-14.50196 45.63852-51.183387 6.824451-62.699649s-46.918104 10.663206-85.305644 11.089734-42.652822-24.312109-81.466891-34.975315a79.760778 79.760778 0 0 0-80.613834 15.355016 82.746475 82.746475 0 0 1-31.13656 17.487658 236.723164 236.723164 0 0 1-42.652823-24.738637A85.305645 85.305645 0 0 0 388.140683 7.454434c-31.989617 15.781544-38.814068 27.724334-65.258818 31.989616S244.8272 15.984998 218.38245 32.619599s-11.089734 43.505879 12.795847 56.728254zM1014.284114 682.64861a143.740011 143.740011 0 0 0-13.222375-32.416145l32.842673-32.842673-58.007838-57.58131-32.842674 32.842673a127.958467 127.958467 0 0 0-31.989616-13.222375v-44.785463h-81.893419v46.491576a127.958467 127.958467 0 0 0-31.989617 13.222375l-32.842673-32.842673-58.007838 57.58131 32.842673 32.842673A166.772535 166.772535 0 0 0 725.097979 682.64861h-45.63852v85.305645H725.097979c0 5.544867 3.838754 11.089734 5.971395 16.208072a124.546241 124.546241 0 0 0 5.971395 13.222375l-32.842673 32.842673 58.007838 57.58131 32.842673-32.842673c4.265282 2.559169 8.530564 4.265282 12.795847 6.397924a116.868733 116.868733 0 0 0 17.061129 6.397923v46.491576h81.893418v-45.211991a144.593068 144.593068 0 0 0 17.487658-6.397924c4.265282-2.132641 8.530564-3.838754 12.795846-6.397923l32.842673 32.842673 58.007839-57.58131-32.842673-32.842673 6.397923-13.222375c2.132641-5.118339 4.265282-10.663206 5.971395-16.208072h46.491576V682.64861h-39.667124z m-48.19769 42.652823a26.018222 26.018222 0 0 1 0 5.971395 11.94279 11.94279 0 0 1 0 3.838754 29.430447 29.430447 0 0 1 0 5.544867v3.838754a97.248435 97.248435 0 0 1-93.40968 73.362854 98.954548 98.954548 0 0 1-24.738637-3.412226 95.96885 95.96885 0 0 1-68.671044-69.950628v-3.838754-5.544867-3.838754a26.018222 26.018222 0 0 1 0-5.971395v-9.81015a3.838754 3.838754 0 0 1 0-2.132641 46.918104 46.918104 0 0 1 0-7.677508 49.477274 49.477274 0 0 1 0-7.677508l2.559169-6.824451a96.395378 96.395378 0 0 1 178.288797 0v6.824451c0 2.559169 0 5.118339 2.132641 7.677508V725.301433z" p-id="2050" fill="#ffffff"></path><path d="M619.745508 737.670751a267.433196 267.433196 0 0 1 275.96376-260.182216 319.469639 319.469639 0 0 1 49.903802 4.265282 511.833867 511.833867 0 0 0-101.087189-83.173003 881.207308 881.207308 0 0 1-170.611289-140.754314H343.781748a904.66636 904.66636 0 0 1-162.933782 138.621673C65.685346 473.223253-27.724334 597.342966 7.677508 743.642146 38.38754 875.012839 200.894793 1023.871188 508.84817 1023.871188a790.783325 790.783325 0 0 0 279.375986-45.638519 261.461801 261.461801 0 0 1-168.478648-240.561918z m-70.803685 12.369318a29.856976 29.856976 0 0 1-30.710032 29.00392H412.87932v58.860894a34.122258 34.122258 0 0 1-68.244516 0v-58.860894H235.443579a29.003919 29.003919 0 1 1 0-58.007839h109.191225v-33.269201H235.443579a29.003919 29.003919 0 1 1 0-58.007838h82.746475l-93.836209-127.958467a27.724334 27.724334 0 0 1 0-42.652822 31.989617 31.989617 0 0 1 42.652822 0 26.018222 26.018222 0 0 1 5.118339 6.824451l102.366774 138.621673L479.417722 469.384499a32.416145 32.416145 0 0 1 42.652823 0 28.150863 28.150863 0 0 1 6.397923 34.122258l-93.836209 127.958467h82.746475a29.003919 29.003919 0 1 1 0 58.007838H412.87932v33.269201h106.205527a29.430447 29.430447 0 0 1 29.856976 28.577391z" p-id="2051" fill="#ffffff"></path></svg>