<svg t="1618799701341" class="icon" viewBox="0 0 1024 1024" version="1.1" xmlns="http://www.w3.org/2000/svg" p-id="13137" width="200" height="200"><path d="M352 640c21.984 0 48.992 2.048 77.44 4.672l69.12 6.656c28.448 2.624 55.456 4.672 77.44 4.672h56c22.08 0 40 17.92 40 40v2.24a46.08 46.08 0 0 1-37.056 45.184l-7.84 1.568-29.28 4.544-9.696 1.312-7.552 0.864a86.752 86.752 0 0 1-2.752 0.224L576 752l-96.16 13.76a18.464 18.464 0 0 0-15.84 18.24c0 9.024 7.04 16.448 16 16.96l30.72 1.632 27.328 1.024 16.32 0.384 7.616 0.064h14.08l12.608-0.32 11.072-0.544 4.992-0.352 8.832-0.96c2.688-0.32 5.12-0.736 7.328-1.184L624 800c10.72-2.688 20.576-4.864 29.76-6.72l17.408-3.456 8.128-1.568A143.68 143.68 0 0 0 704 784c25.6-6.4 51.68-17.92 76.704-30.464l24.64-12.736 23.616-12.48c19.136-10.112 36.832-18.976 52.224-24.32 46.208-16 61.6 48 30.784 64a150.944 150.944 0 0 0-13.152 8.064l-11.648 8.032-13.44 9.696-56.224 41.312-17.12 12.32-16.928 11.84c-25.024 17.184-48.064 31.392-63.456 36.736l-24.288 8.224-32.32 10.656-37.024 11.744-19.2 5.92-28.448 8.48-18.08 5.12-16.96 4.576-15.296 3.84c-14.4 3.392-25.728 5.44-32.096 5.44l-7.008-0.192-9.28-0.544-11.392-0.96-13.216-1.28-14.848-1.696-16.224-2.08-26.496-3.808-9.28-1.44-19.104-3.2-19.584-3.52-19.84-3.968a1053.504 1053.504 0 0 1-29.824-6.624l-19.52-4.864a664.224 664.224 0 0 1-37.312-10.88L234.56 912c-43.232-14.976-78.912-22.08-106.976-21.28A30.72 30.72 0 0 1 96 860.896V702.72c0-16.96 13.76-30.72 30.72-30.72h30.848c16.32 0 37.664-4 61.152-9.152l36.512-8.256 25.088-5.44C305.408 644 330.24 640 352 640z m311.296-544l49.408 119.296L832 264.704 782.56 384 832 503.296l-119.328 49.408-23.36 56.512a103.52 103.52 0 0 0-57.312-17.216h-60.448l-9.248-0.224-15.488-0.768-12.064-0.832-30.144-2.56-79.36-7.584-25.6-2.112-14.336-0.96-10.048-24.256L256 503.296 305.408 384 256 264.704l119.296-49.408L424.704 96 544 145.408 663.296 96z m12.384 179.968l-3.008 2.656-171.648 171.616-81.152-81.12a32 32 0 0 0-47.904 42.24l2.656 3.04 103.776 103.744a32 32 0 0 0 42.24 2.688l3.008-2.688 194.272-194.24a32 32 0 0 0-39.008-50.144l-3.232 2.208z" fill="#ffffff" p-id="13138"></path></svg>