<svg t="1616145872349" class="icon" viewBox="0 0 1041 1024" version="1.1" xmlns="http://www.w3.org/2000/svg" p-id="5124" width="200" height="200"><path d="M347.118933 337.408c0 88.200533 71.253333 159.744 159.214934 159.744 87.944533 0 159.214933-71.543467 159.214933-159.744a25.6 25.6 0 1 0-51.2 0c0 59.972267-48.384 108.544-108.032 108.544-59.613867 0-107.997867-48.571733-107.997867-108.544a25.6 25.6 0 0 0-51.2 0z" fill="#ffffff" p-id="5125"></path><path d="M506.333867 649.198933c171.588267 0 310.6304-139.605333 310.6304-311.808C816.981333 165.239467 677.922133 25.6 506.333867 25.6S195.6864 165.205333 195.6864 337.408c0 172.168533 139.0592 311.790933 310.647467 311.790933z m0-51.2c-143.274667 0-259.447467-116.650667-259.447467-260.608 0-143.940267 116.1728-260.590933 259.447467-260.590933 143.2576 0 259.4304 116.650667 259.4304 260.608 0 143.940267-116.1728 260.590933-259.4304 260.590933zM323.362133 941.175467c-22.3744 0-36.352-15.991467-33.4336-38.673067l35.242667-239.7696L280.507733 614.4l-41.352533 281.565867c-6.826667 53.213867 30.856533 96.4096 84.206933 96.4096h306.295467l-47.291733-51.2H323.362133zM694.903467 801.3312l-60.2112-58.6752 83.2-12.100267 37.205333-75.383466 37.205333 75.383466 83.2 12.100267-60.2112 58.6752 14.216534 82.858667-74.410667-39.1168-74.410667 39.1168 14.216534-82.858667z m126.498133 136.448c35.464533 18.6368 68.352-5.256533 61.576533-44.7488L870.314667 819.2l53.640533-52.2752c28.689067-27.972267 16.110933-66.628267-23.517867-72.379733l-74.1376-10.786134-33.143466-67.157333c-17.749333-35.9424-58.368-35.925333-76.117334 0l-33.143466 67.157333-74.120534 10.786134c-39.662933 5.751467-52.224 44.424533-23.534933 72.379733L639.880533 819.2l-12.663466 73.8304c-6.775467 39.492267 26.112 63.3856 61.576533 44.7488l66.304-34.8672 66.304 34.8672z" fill="#ffffff" p-id="5126"></path></svg>