<svg t="1616145915287" class="icon" viewBox="0 0 1024 1024" version="1.1" xmlns="http://www.w3.org/2000/svg" p-id="5298" width="200" height="200"><path d="M 944.315 389.536 L 944.315 257.6 L 829.792 191.466 L 763.983 77.2714 L 632.043 77.2714 L 517.534 11.1446 L 403.336 77.2714 L 271.4 77.2714 L 205.266 191.466 l -114.516 66.1305 l 0 131.936 L 24.9443 503.731 l 66.1269 114.198 l 0 131.932 l 114.52 65.8054 l 66.1305 114.516 l 131.936 0 l 114.198 65.8126 l 114.513 -65.8126 l 131.614 0 l 65.809 -114.516 l 114.524 -65.8054 l 0 -131.932 l 65.8017 -114.198 L 944.315 389.536 Z M 219.546 406.031 l 195.346 0 l -34.214 120.965 L 219.546 406.031 Z M 533.993 637.914 l 106.345 -74.3561 l 47.4827 179.65 L 533.993 637.914 Z M 666.189 518.145 l -0.01445 -0.010838 l -182.384 130.263 l -147.17 94.8137 l 60.0759 -189.432 l 0.238425 0.07225 l 1.73039 -6.28576 l 1.80625 -5.69692 l -0.198688 -0.148113 l 43.3898 -157.415 l -0.137275 -0.036125 l 74.0202 -170.908 l 83.4163 192.676 l 214.554 0 L 666.189 518.145 Z" p-id="5299" fill="#ffffff"></path></svg>