<svg t="1619088678026" class="icon" viewBox="0 0 1024 1024" version="1.1" xmlns="http://www.w3.org/2000/svg" p-id="33095" width="200" height="200"><path d="M353.987 348.949c0 0 173.124 89.875 319.294 55.941 0 0 295.345-94.649 283.413 243.47 0 0-55.056 399.715-580.615 263.354 0 0-394.589-137.597-292.253-499.754 0 0 30.223-73.793 112.5-71.318 0 0-109.584-115.063-10.693-221.818 52.67-57.089 356.411-76.444 346.602 201.58 0 0-251.511-10.693-332.815-163.669 0 0-51.434 30.754 35.527 182.934 0.089 0.177 45.865-13.61 119.039 9.28z" p-id="33096" fill="#ffffff"></path></svg>