<svg t="1622088310869" class="icon" viewBox="0 0 1024 1024" version="1.1" xmlns="http://www.w3.org/2000/svg" p-id="12171" width="200" height="200"><path d="M823.296 943.104H210.944c-23.552 0-44.032-19.456-44.032-41.984V245.76c0-23.552 19.456-41.984 44.032-41.984h611.328c23.552 0 44.032 19.456 44.032 41.984v655.36c0 11.264-5.12 22.528-13.312 30.72-8.192 7.168-18.432 11.264-29.696 11.264z m-612.352-43.008h611.328V246.784H210.944v653.312z" fill="#ffffff" p-id="12172"></path><path d="M476.16 592.896h-16.384c-27.648-1.024-64.512-1.024-87.04-9.216-50.176-18.432-74.752-50.176-74.752-96.256 0-26.624 11.264-53.248 30.72-72.704 18.432-18.432 43.008-28.672 68.608-28.672 51.2 0 88.064 27.648 104.448 79.872 7.168 21.504 6.144 47.104 5.12 68.608 0 10.24-1.024 19.456 0 26.624 1.024 8.192-2.048 17.408-8.192 23.552-6.144 4.096-14.336 8.192-22.528 8.192z m-79.872-179.2c-17.408 0-34.816 7.168-48.128 20.48-14.336 13.312-21.504 32.768-21.504 51.2 0 33.792 17.408 55.296 55.296 69.632 17.408 6.144 53.248 7.168 76.8 8.192h16.384l15.36-2.048-14.336 1.024c-1.024-8.192 0-19.456 0-29.696 1.024-19.456 2.048-41.984-3.072-58.368-12.288-40.96-36.864-60.416-76.8-60.416 1.024 0 1.024 0 0 0zM396.288 823.296c-25.6 0-50.176-10.24-68.608-28.672-19.456-19.456-30.72-45.056-30.72-72.704 0-46.08 24.576-77.824 74.752-96.256 22.528-8.192 59.392-9.216 87.04-9.216h15.36c9.216 0 17.408 3.072 22.528 9.216 6.144 6.144 9.216 14.336 8.192 23.552-1.024 6.144 0 16.384 0 26.624 1.024 20.48 2.048 47.104-5.12 68.608-14.336 51.2-51.2 78.848-103.424 78.848 1.024 0 1.024 0 0 0z m78.848-192.512l1.024 14.336h-16.384c-23.552 0-59.392 1.024-76.8 8.192-38.912 14.336-55.296 35.84-55.296 69.632 0 19.456 8.192 37.888 21.504 51.2s30.72 20.48 48.128 20.48c38.912 0 63.488-19.456 76.8-59.392 5.12-16.384 4.096-38.912 3.072-58.368 0-11.264-1.024-21.504 0-29.696l-2.048-16.384zM637.952 823.296c-1.024 0-1.024 0 0 0-52.224 0-88.064-27.648-104.448-79.872-7.168-21.504-6.144-47.104-5.12-68.608 0-10.24 1.024-19.456 0-26.624-1.024-8.192 2.048-17.408 8.192-23.552s14.336-9.216 22.528-9.216h15.36c27.648 1.024 64.512 1.024 87.04 9.216 50.176 18.432 74.752 50.176 74.752 96.256 0 26.624-11.264 53.248-30.72 72.704-18.432 19.456-43.008 29.696-67.584 29.696z m-77.824-89.088c12.288 39.936 37.888 59.392 76.8 59.392 18.432 0 34.816-7.168 48.128-20.48 14.336-13.312 21.504-32.768 21.504-51.2 0-33.792-17.408-55.296-55.296-69.632-17.408-6.144-53.248-7.168-76.8-8.192h-16.384l-15.36 3.072 14.336-1.024c1.024 8.192 0 19.456 0 30.72-1.024 19.456-2.048 40.96 3.072 57.344zM558.08 592.896c-8.192 0-16.384-3.072-21.504-9.216-6.144-6.144-9.216-14.336-8.192-23.552 1.024-6.144 0-16.384 0-26.624-1.024-20.48-2.048-47.104 5.12-68.608 16.384-52.224 52.224-79.872 104.448-79.872 25.6 0 50.176 10.24 68.608 28.672 19.456 19.456 30.72 45.056 30.72 72.704 0 46.08-24.576 77.824-74.752 96.256-22.528 8.192-59.392 9.216-87.04 9.216h-15.36c-1.024 1.024-1.024 1.024-2.048 1.024z m2.048-118.784c-5.12 16.384-4.096 38.912-3.072 58.368 0 11.264 1.024 21.504 0 30.72l2.048 15.36-1.024-15.36h16.384c23.552 0 59.392-1.024 76.8-8.192 38.912-14.336 55.296-35.84 55.296-69.632 0-19.456-8.192-37.888-21.504-51.2-13.312-13.312-30.72-20.48-48.128-20.48-38.912 0-63.488 19.456-76.8 60.416z" fill="#ffffff" p-id="12173"></path><path d="M306.176 278.528m-25.6 0a25.6 25.6 0 1 0 51.2 0 25.6 25.6 0 1 0-51.2 0Z" fill="#ffffff" p-id="12174"></path><path d="M727.04 278.528m-25.6 0a25.6 25.6 0 1 0 51.2 0 25.6 25.6 0 1 0-51.2 0Z" fill="#ffffff" p-id="12175"></path><path d="M320.512 282.624l-27.648-10.24c1.024-4.096 3.072-8.192 4.096-12.288 17.408-52.224 54.272-161.792 220.16-161.792S719.872 207.872 737.28 260.096c2.048 5.12 3.072 9.216 4.096 12.288l-27.648 10.24c-1.024-4.096-3.072-8.192-5.12-13.312-18.432-53.248-48.128-142.336-192.512-142.336s-175.104 89.088-192.512 142.336c0 5.12-2.048 9.216-3.072 13.312z" fill="#ffffff" p-id="12176"></path></svg><svg t="1622088310869" class="icon" viewBox="0 0 1024 1024" version="1.1" xmlns="http://www.w3.org/2000/svg" p-id="12171" width="200" height="200"><path d="M823.296 943.104H210.944c-23.552 0-44.032-19.456-44.032-41.984V245.76c0-23.552 19.456-41.984 44.032-41.984h611.328c23.552 0 44.032 19.456 44.032 41.984v655.36c0 11.264-5.12 22.528-13.312 30.72-8.192 7.168-18.432 11.264-29.696 11.264z m-612.352-43.008h611.328V246.784H210.944v653.312z" fill="#ffffff" p-id="12172"></path><path d="M476.16 592.896h-16.384c-27.648-1.024-64.512-1.024-87.04-9.216-50.176-18.432-74.752-50.176-74.752-96.256 0-26.624 11.264-53.248 30.72-72.704 18.432-18.432 43.008-28.672 68.608-28.672 51.2 0 88.064 27.648 104.448 79.872 7.168 21.504 6.144 47.104 5.12 68.608 0 10.24-1.024 19.456 0 26.624 1.024 8.192-2.048 17.408-8.192 23.552-6.144 4.096-14.336 8.192-22.528 8.192z m-79.872-179.2c-17.408 0-34.816 7.168-48.128 20.48-14.336 13.312-21.504 32.768-21.504 51.2 0 33.792 17.408 55.296 55.296 69.632 17.408 6.144 53.248 7.168 76.8 8.192h16.384l15.36-2.048-14.336 1.024c-1.024-8.192 0-19.456 0-29.696 1.024-19.456 2.048-41.984-3.072-58.368-12.288-40.96-36.864-60.416-76.8-60.416 1.024 0 1.024 0 0 0zM396.288 823.296c-25.6 0-50.176-10.24-68.608-28.672-19.456-19.456-30.72-45.056-30.72-72.704 0-46.08 24.576-77.824 74.752-96.256 22.528-8.192 59.392-9.216 87.04-9.216h15.36c9.216 0 17.408 3.072 22.528 9.216 6.144 6.144 9.216 14.336 8.192 23.552-1.024 6.144 0 16.384 0 26.624 1.024 20.48 2.048 47.104-5.12 68.608-14.336 51.2-51.2 78.848-103.424 78.848 1.024 0 1.024 0 0 0z m78.848-192.512l1.024 14.336h-16.384c-23.552 0-59.392 1.024-76.8 8.192-38.912 14.336-55.296 35.84-55.296 69.632 0 19.456 8.192 37.888 21.504 51.2s30.72 20.48 48.128 20.48c38.912 0 63.488-19.456 76.8-59.392 5.12-16.384 4.096-38.912 3.072-58.368 0-11.264-1.024-21.504 0-29.696l-2.048-16.384zM637.952 823.296c-1.024 0-1.024 0 0 0-52.224 0-88.064-27.648-104.448-79.872-7.168-21.504-6.144-47.104-5.12-68.608 0-10.24 1.024-19.456 0-26.624-1.024-8.192 2.048-17.408 8.192-23.552s14.336-9.216 22.528-9.216h15.36c27.648 1.024 64.512 1.024 87.04 9.216 50.176 18.432 74.752 50.176 74.752 96.256 0 26.624-11.264 53.248-30.72 72.704-18.432 19.456-43.008 29.696-67.584 29.696z m-77.824-89.088c12.288 39.936 37.888 59.392 76.8 59.392 18.432 0 34.816-7.168 48.128-20.48 14.336-13.312 21.504-32.768 21.504-51.2 0-33.792-17.408-55.296-55.296-69.632-17.408-6.144-53.248-7.168-76.8-8.192h-16.384l-15.36 3.072 14.336-1.024c1.024 8.192 0 19.456 0 30.72-1.024 19.456-2.048 40.96 3.072 57.344zM558.08 592.896c-8.192 0-16.384-3.072-21.504-9.216-6.144-6.144-9.216-14.336-8.192-23.552 1.024-6.144 0-16.384 0-26.624-1.024-20.48-2.048-47.104 5.12-68.608 16.384-52.224 52.224-79.872 104.448-79.872 25.6 0 50.176 10.24 68.608 28.672 19.456 19.456 30.72 45.056 30.72 72.704 0 46.08-24.576 77.824-74.752 96.256-22.528 8.192-59.392 9.216-87.04 9.216h-15.36c-1.024 1.024-1.024 1.024-2.048 1.024z m2.048-118.784c-5.12 16.384-4.096 38.912-3.072 58.368 0 11.264 1.024 21.504 0 30.72l2.048 15.36-1.024-15.36h16.384c23.552 0 59.392-1.024 76.8-8.192 38.912-14.336 55.296-35.84 55.296-69.632 0-19.456-8.192-37.888-21.504-51.2-13.312-13.312-30.72-20.48-48.128-20.48-38.912 0-63.488 19.456-76.8 60.416z" fill="#ffffff" p-id="12173"></path><path d="M306.176 278.528m-25.6 0a25.6 25.6 0 1 0 51.2 0 25.6 25.6 0 1 0-51.2 0Z" fill="#ffffff" p-id="12174"></path><path d="M727.04 278.528m-25.6 0a25.6 25.6 0 1 0 51.2 0 25.6 25.6 0 1 0-51.2 0Z" fill="#ffffff" p-id="12175"></path><path d="M320.512 282.624l-27.648-10.24c1.024-4.096 3.072-8.192 4.096-12.288 17.408-52.224 54.272-161.792 220.16-161.792S719.872 207.872 737.28 260.096c2.048 5.12 3.072 9.216 4.096 12.288l-27.648 10.24c-1.024-4.096-3.072-8.192-5.12-13.312-18.432-53.248-48.128-142.336-192.512-142.336s-175.104 89.088-192.512 142.336c0 5.12-2.048 9.216-3.072 13.312z" fill="#ffffff" p-id="12176"></path></svg><svg t="1622088310869" class="icon" viewBox="0 0 1024 1024" version="1.1" xmlns="http://www.w3.org/2000/svg" p-id="12171" width="200" height="200"><path d="M823.296 943.104H210.944c-23.552 0-44.032-19.456-44.032-41.984V245.76c0-23.552 19.456-41.984 44.032-41.984h611.328c23.552 0 44.032 19.456 44.032 41.984v655.36c0 11.264-5.12 22.528-13.312 30.72-8.192 7.168-18.432 11.264-29.696 11.264z m-612.352-43.008h611.328V246.784H210.944v653.312z" fill="#ffffff" p-id="12172"></path><path d="M476.16 592.896h-16.384c-27.648-1.024-64.512-1.024-87.04-9.216-50.176-18.432-74.752-50.176-74.752-96.256 0-26.624 11.264-53.248 30.72-72.704 18.432-18.432 43.008-28.672 68.608-28.672 51.2 0 88.064 27.648 104.448 79.872 7.168 21.504 6.144 47.104 5.12 68.608 0 10.24-1.024 19.456 0 26.624 1.024 8.192-2.048 17.408-8.192 23.552-6.144 4.096-14.336 8.192-22.528 8.192z m-79.872-179.2c-17.408 0-34.816 7.168-48.128 20.48-14.336 13.312-21.504 32.768-21.504 51.2 0 33.792 17.408 55.296 55.296 69.632 17.408 6.144 53.248 7.168 76.8 8.192h16.384l15.36-2.048-14.336 1.024c-1.024-8.192 0-19.456 0-29.696 1.024-19.456 2.048-41.984-3.072-58.368-12.288-40.96-36.864-60.416-76.8-60.416 1.024 0 1.024 0 0 0zM396.288 823.296c-25.6 0-50.176-10.24-68.608-28.672-19.456-19.456-30.72-45.056-30.72-72.704 0-46.08 24.576-77.824 74.752-96.256 22.528-8.192 59.392-9.216 87.04-9.216h15.36c9.216 0 17.408 3.072 22.528 9.216 6.144 6.144 9.216 14.336 8.192 23.552-1.024 6.144 0 16.384 0 26.624 1.024 20.48 2.048 47.104-5.12 68.608-14.336 51.2-51.2 78.848-103.424 78.848 1.024 0 1.024 0 0 0z m78.848-192.512l1.024 14.336h-16.384c-23.552 0-59.392 1.024-76.8 8.192-38.912 14.336-55.296 35.84-55.296 69.632 0 19.456 8.192 37.888 21.504 51.2s30.72 20.48 48.128 20.48c38.912 0 63.488-19.456 76.8-59.392 5.12-16.384 4.096-38.912 3.072-58.368 0-11.264-1.024-21.504 0-29.696l-2.048-16.384zM637.952 823.296c-1.024 0-1.024 0 0 0-52.224 0-88.064-27.648-104.448-79.872-7.168-21.504-6.144-47.104-5.12-68.608 0-10.24 1.024-19.456 0-26.624-1.024-8.192 2.048-17.408 8.192-23.552s14.336-9.216 22.528-9.216h15.36c27.648 1.024 64.512 1.024 87.04 9.216 50.176 18.432 74.752 50.176 74.752 96.256 0 26.624-11.264 53.248-30.72 72.704-18.432 19.456-43.008 29.696-67.584 29.696z m-77.824-89.088c12.288 39.936 37.888 59.392 76.8 59.392 18.432 0 34.816-7.168 48.128-20.48 14.336-13.312 21.504-32.768 21.504-51.2 0-33.792-17.408-55.296-55.296-69.632-17.408-6.144-53.248-7.168-76.8-8.192h-16.384l-15.36 3.072 14.336-1.024c1.024 8.192 0 19.456 0 30.72-1.024 19.456-2.048 40.96 3.072 57.344zM558.08 592.896c-8.192 0-16.384-3.072-21.504-9.216-6.144-6.144-9.216-14.336-8.192-23.552 1.024-6.144 0-16.384 0-26.624-1.024-20.48-2.048-47.104 5.12-68.608 16.384-52.224 52.224-79.872 104.448-79.872 25.6 0 50.176 10.24 68.608 28.672 19.456 19.456 30.72 45.056 30.72 72.704 0 46.08-24.576 77.824-74.752 96.256-22.528 8.192-59.392 9.216-87.04 9.216h-15.36c-1.024 1.024-1.024 1.024-2.048 1.024z m2.048-118.784c-5.12 16.384-4.096 38.912-3.072 58.368 0 11.264 1.024 21.504 0 30.72l2.048 15.36-1.024-15.36h16.384c23.552 0 59.392-1.024 76.8-8.192 38.912-14.336 55.296-35.84 55.296-69.632 0-19.456-8.192-37.888-21.504-51.2-13.312-13.312-30.72-20.48-48.128-20.48-38.912 0-63.488 19.456-76.8 60.416z" fill="#ffffff" p-id="12173"></path><path d="M306.176 278.528m-25.6 0a25.6 25.6 0 1 0 51.2 0 25.6 25.6 0 1 0-51.2 0Z" fill="#ffffff" p-id="12174"></path><path d="M727.04 278.528m-25.6 0a25.6 25.6 0 1 0 51.2 0 25.6 25.6 0 1 0-51.2 0Z" fill="#ffffff" p-id="12175"></path><path d="M320.512 282.624l-27.648-10.24c1.024-4.096 3.072-8.192 4.096-12.288 17.408-52.224 54.272-161.792 220.16-161.792S719.872 207.872 737.28 260.096c2.048 5.12 3.072 9.216 4.096 12.288l-27.648 10.24c-1.024-4.096-3.072-8.192-5.12-13.312-18.432-53.248-48.128-142.336-192.512-142.336s-175.104 89.088-192.512 142.336c0 5.12-2.048 9.216-3.072 13.312z" fill="#ffffff" p-id="12176"></path></svg><svg t="1622088310869" class="icon" viewBox="0 0 1024 1024" version="1.1" xmlns="http://www.w3.org/2000/svg" p-id="12171" width="200" height="200"><path d="M823.296 943.104H210.944c-23.552 0-44.032-19.456-44.032-41.984V245.76c0-23.552 19.456-41.984 44.032-41.984h611.328c23.552 0 44.032 19.456 44.032 41.984v655.36c0 11.264-5.12 22.528-13.312 30.72-8.192 7.168-18.432 11.264-29.696 11.264z m-612.352-43.008h611.328V246.784H210.944v653.312z" fill="#ffffff" p-id="12172"></path><path d="M476.16 592.896h-16.384c-27.648-1.024-64.512-1.024-87.04-9.216-50.176-18.432-74.752-50.176-74.752-96.256 0-26.624 11.264-53.248 30.72-72.704 18.432-18.432 43.008-28.672 68.608-28.672 51.2 0 88.064 27.648 104.448 79.872 7.168 21.504 6.144 47.104 5.12 68.608 0 10.24-1.024 19.456 0 26.624 1.024 8.192-2.048 17.408-8.192 23.552-6.144 4.096-14.336 8.192-22.528 8.192z m-79.872-179.2c-17.408 0-34.816 7.168-48.128 20.48-14.336 13.312-21.504 32.768-21.504 51.2 0 33.792 17.408 55.296 55.296 69.632 17.408 6.144 53.248 7.168 76.8 8.192h16.384l15.36-2.048-14.336 1.024c-1.024-8.192 0-19.456 0-29.696 1.024-19.456 2.048-41.984-3.072-58.368-12.288-40.96-36.864-60.416-76.8-60.416 1.024 0 1.024 0 0 0zM396.288 823.296c-25.6 0-50.176-10.24-68.608-28.672-19.456-19.456-30.72-45.056-30.72-72.704 0-46.08 24.576-77.824 74.752-96.256 22.528-8.192 59.392-9.216 87.04-9.216h15.36c9.216 0 17.408 3.072 22.528 9.216 6.144 6.144 9.216 14.336 8.192 23.552-1.024 6.144 0 16.384 0 26.624 1.024 20.48 2.048 47.104-5.12 68.608-14.336 51.2-51.2 78.848-103.424 78.848 1.024 0 1.024 0 0 0z m78.848-192.512l1.024 14.336h-16.384c-23.552 0-59.392 1.024-76.8 8.192-38.912 14.336-55.296 35.84-55.296 69.632 0 19.456 8.192 37.888 21.504 51.2s30.72 20.48 48.128 20.48c38.912 0 63.488-19.456 76.8-59.392 5.12-16.384 4.096-38.912 3.072-58.368 0-11.264-1.024-21.504 0-29.696l-2.048-16.384zM637.952 823.296c-1.024 0-1.024 0 0 0-52.224 0-88.064-27.648-104.448-79.872-7.168-21.504-6.144-47.104-5.12-68.608 0-10.24 1.024-19.456 0-26.624-1.024-8.192 2.048-17.408 8.192-23.552s14.336-9.216 22.528-9.216h15.36c27.648 1.024 64.512 1.024 87.04 9.216 50.176 18.432 74.752 50.176 74.752 96.256 0 26.624-11.264 53.248-30.72 72.704-18.432 19.456-43.008 29.696-67.584 29.696z m-77.824-89.088c12.288 39.936 37.888 59.392 76.8 59.392 18.432 0 34.816-7.168 48.128-20.48 14.336-13.312 21.504-32.768 21.504-51.2 0-33.792-17.408-55.296-55.296-69.632-17.408-6.144-53.248-7.168-76.8-8.192h-16.384l-15.36 3.072 14.336-1.024c1.024 8.192 0 19.456 0 30.72-1.024 19.456-2.048 40.96 3.072 57.344zM558.08 592.896c-8.192 0-16.384-3.072-21.504-9.216-6.144-6.144-9.216-14.336-8.192-23.552 1.024-6.144 0-16.384 0-26.624-1.024-20.48-2.048-47.104 5.12-68.608 16.384-52.224 52.224-79.872 104.448-79.872 25.6 0 50.176 10.24 68.608 28.672 19.456 19.456 30.72 45.056 30.72 72.704 0 46.08-24.576 77.824-74.752 96.256-22.528 8.192-59.392 9.216-87.04 9.216h-15.36c-1.024 1.024-1.024 1.024-2.048 1.024z m2.048-118.784c-5.12 16.384-4.096 38.912-3.072 58.368 0 11.264 1.024 21.504 0 30.72l2.048 15.36-1.024-15.36h16.384c23.552 0 59.392-1.024 76.8-8.192 38.912-14.336 55.296-35.84 55.296-69.632 0-19.456-8.192-37.888-21.504-51.2-13.312-13.312-30.72-20.48-48.128-20.48-38.912 0-63.488 19.456-76.8 60.416z" fill="#ffffff" p-id="12173"></path><path d="M306.176 278.528m-25.6 0a25.6 25.6 0 1 0 51.2 0 25.6 25.6 0 1 0-51.2 0Z" fill="#ffffff" p-id="12174"></path><path d="M727.04 278.528m-25.6 0a25.6 25.6 0 1 0 51.2 0 25.6 25.6 0 1 0-51.2 0Z" fill="#ffffff" p-id="12175"></path><path d="M320.512 282.624l-27.648-10.24c1.024-4.096 3.072-8.192 4.096-12.288 17.408-52.224 54.272-161.792 220.16-161.792S719.872 207.872 737.28 260.096c2.048 5.12 3.072 9.216 4.096 12.288l-27.648 10.24c-1.024-4.096-3.072-8.192-5.12-13.312-18.432-53.248-48.128-142.336-192.512-142.336s-175.104 89.088-192.512 142.336c0 5.12-2.048 9.216-3.072 13.312z" fill="#ffffff" p-id="12176"></path></svg><svg t="1622088310869" class="icon" viewBox="0 0 1024 1024" version="1.1" xmlns="http://www.w3.org/2000/svg" p-id="12171" width="200" height="200"><path d="M823.296 943.104H210.944c-23.552 0-44.032-19.456-44.032-41.984V245.76c0-23.552 19.456-41.984 44.032-41.984h611.328c23.552 0 44.032 19.456 44.032 41.984v655.36c0 11.264-5.12 22.528-13.312 30.72-8.192 7.168-18.432 11.264-29.696 11.264z m-612.352-43.008h611.328V246.784H210.944v653.312z" fill="#ffffff" p-id="12172"></path><path d="M476.16 592.896h-16.384c-27.648-1.024-64.512-1.024-87.04-9.216-50.176-18.432-74.752-50.176-74.752-96.256 0-26.624 11.264-53.248 30.72-72.704 18.432-18.432 43.008-28.672 68.608-28.672 51.2 0 88.064 27.648 104.448 79.872 7.168 21.504 6.144 47.104 5.12 68.608 0 10.24-1.024 19.456 0 26.624 1.024 8.192-2.048 17.408-8.192 23.552-6.144 4.096-14.336 8.192-22.528 8.192z m-79.872-179.2c-17.408 0-34.816 7.168-48.128 20.48-14.336 13.312-21.504 32.768-21.504 51.2 0 33.792 17.408 55.296 55.296 69.632 17.408 6.144 53.248 7.168 76.8 8.192h16.384l15.36-2.048-14.336 1.024c-1.024-8.192 0-19.456 0-29.696 1.024-19.456 2.048-41.984-3.072-58.368-12.288-40.96-36.864-60.416-76.8-60.416 1.024 0 1.024 0 0 0zM396.288 823.296c-25.6 0-50.176-10.24-68.608-28.672-19.456-19.456-30.72-45.056-30.72-72.704 0-46.08 24.576-77.824 74.752-96.256 22.528-8.192 59.392-9.216 87.04-9.216h15.36c9.216 0 17.408 3.072 22.528 9.216 6.144 6.144 9.216 14.336 8.192 23.552-1.024 6.144 0 16.384 0 26.624 1.024 20.48 2.048 47.104-5.12 68.608-14.336 51.2-51.2 78.848-103.424 78.848 1.024 0 1.024 0 0 0z m78.848-192.512l1.024 14.336h-16.384c-23.552 0-59.392 1.024-76.8 8.192-38.912 14.336-55.296 35.84-55.296 69.632 0 19.456 8.192 37.888 21.504 51.2s30.72 20.48 48.128 20.48c38.912 0 63.488-19.456 76.8-59.392 5.12-16.384 4.096-38.912 3.072-58.368 0-11.264-1.024-21.504 0-29.696l-2.048-16.384zM637.952 823.296c-1.024 0-1.024 0 0 0-52.224 0-88.064-27.648-104.448-79.872-7.168-21.504-6.144-47.104-5.12-68.608 0-10.24 1.024-19.456 0-26.624-1.024-8.192 2.048-17.408 8.192-23.552s14.336-9.216 22.528-9.216h15.36c27.648 1.024 64.512 1.024 87.04 9.216 50.176 18.432 74.752 50.176 74.752 96.256 0 26.624-11.264 53.248-30.72 72.704-18.432 19.456-43.008 29.696-67.584 29.696z m-77.824-89.088c12.288 39.936 37.888 59.392 76.8 59.392 18.432 0 34.816-7.168 48.128-20.48 14.336-13.312 21.504-32.768 21.504-51.2 0-33.792-17.408-55.296-55.296-69.632-17.408-6.144-53.248-7.168-76.8-8.192h-16.384l-15.36 3.072 14.336-1.024c1.024 8.192 0 19.456 0 30.72-1.024 19.456-2.048 40.96 3.072 57.344zM558.08 592.896c-8.192 0-16.384-3.072-21.504-9.216-6.144-6.144-9.216-14.336-8.192-23.552 1.024-6.144 0-16.384 0-26.624-1.024-20.48-2.048-47.104 5.12-68.608 16.384-52.224 52.224-79.872 104.448-79.872 25.6 0 50.176 10.24 68.608 28.672 19.456 19.456 30.72 45.056 30.72 72.704 0 46.08-24.576 77.824-74.752 96.256-22.528 8.192-59.392 9.216-87.04 9.216h-15.36c-1.024 1.024-1.024 1.024-2.048 1.024z m2.048-118.784c-5.12 16.384-4.096 38.912-3.072 58.368 0 11.264 1.024 21.504 0 30.72l2.048 15.36-1.024-15.36h16.384c23.552 0 59.392-1.024 76.8-8.192 38.912-14.336 55.296-35.84 55.296-69.632 0-19.456-8.192-37.888-21.504-51.2-13.312-13.312-30.72-20.48-48.128-20.48-38.912 0-63.488 19.456-76.8 60.416z" fill="#ffffff" p-id="12173"></path><path d="M306.176 278.528m-25.6 0a25.6 25.6 0 1 0 51.2 0 25.6 25.6 0 1 0-51.2 0Z" fill="#ffffff" p-id="12174"></path><path d="M727.04 278.528m-25.6 0a25.6 25.6 0 1 0 51.2 0 25.6 25.6 0 1 0-51.2 0Z" fill="#ffffff" p-id="12175"></path><path d="M320.512 282.624l-27.648-10.24c1.024-4.096 3.072-8.192 4.096-12.288 17.408-52.224 54.272-161.792 220.16-161.792S719.872 207.872 737.28 260.096c2.048 5.12 3.072 9.216 4.096 12.288l-27.648 10.24c-1.024-4.096-3.072-8.192-5.12-13.312-18.432-53.248-48.128-142.336-192.512-142.336s-175.104 89.088-192.512 142.336c0 5.12-2.048 9.216-3.072 13.312z" fill="#ffffff" p-id="12176"></path></svg>