<svg t="1621995157256" class="icon" viewBox="0 0 1024 1024" version="1.1" xmlns="http://www.w3.org/2000/svg" p-id="11292" width="200" height="200"><path d="M853.333333 157.013333H170.666667c-20.48 0-34.133333 17.066667-34.133334 34.133334v682.666666c0 20.48 17.066667 34.133333 34.133334 34.133334h682.666666c20.48 0 34.133333-13.653333 34.133334-34.133334v-682.666666c0-20.48-17.066667-34.133333-34.133334-34.133334zM512 768c0 6.826667-6.826667 13.653333-13.653333 13.653333H252.586667c-6.826667 0-13.653333-6.826667-13.653334-13.653333v-23.893333c0-6.826667 6.826667-13.653333 13.653334-13.653334h245.76c6.826667 0 13.653333 6.826667 13.653333 13.653334v23.893333z m102.4-221.866667c0 6.826667-6.826667 13.653333-13.653333 13.653334H252.586667c-6.826667 0-13.653333-6.826667-13.653334-13.653334v-23.893333c0-6.826667 6.826667-13.653333 13.653334-13.653333h348.16c6.826667 0 13.653333 6.826667 13.653333 13.653333v23.893333z m170.666667-221.866666c0 6.826667-6.826667 13.653333-13.653334 13.653333H252.586667c-6.826667 0-13.653333-6.826667-13.653334-13.653333v-23.893334c0-6.826667 6.826667-13.653333 13.653334-13.653333h518.826666c6.826667 0 13.653333 6.826667 13.653334 13.653333v23.893334z" fill="#708BB1" p-id="11293"></path></svg>