<svg t="1620643194414" class="icon" viewBox="0 0 1024 1024" version="1.1" xmlns="http://www.w3.org/2000/svg" p-id="6520" width="200" height="200"><path d="M789.333333 597.333333a192 192 0 1 1 0 384 192 192 0 0 1 0-384z m2.688 66.133334l-1.493333 2.005333-96.085333 136.021333c-2.816 4.693333 0.085333 11.776 4.821333 13.482667l2.133333 0.384h87.509334c2.56 0 4.778667-0.682667 5.546666 0.682667l0.341334 1.450666-16 91.733334c0 7.594667 8.832 10.538667 13.44 5.845333l1.493333-2.133333 90.709333-148.778667c2.346667-4.693333-0.213333-10.581333-4.821333-11.946667l-2.133333-0.341333h-83.2c-2.048 0-3.754667-0.896-4.48-2.688l-0.384-2.133333 16.042666-77.866667c0-7.552-8.874667-10.069333-13.44-5.674667z m-242.474666 36.010666a255.445333 255.445333 0 0 0-16.213334 89.856c0 38.058667 8.32 74.197333 23.210667 106.666667H72.448a30.72 30.72 0 0 1-25.344-12.757333 24.448 24.448 0 0 1-1.28-26.026667l79.530667-142.890667a30.293333 30.293333 0 0 1 26.624-14.805333l397.568-0.042667z m99.541333-250.026666a30.293333 30.293333 0 0 1 26.624 14.805333l43.818667 78.72a256.469333 256.469333 0 0 0-142.293334 102.912H211.626667a30.72 30.72 0 0 1-25.344-12.672 24.448 24.448 0 0 1-1.28-26.026667L264.533333 464.213333a30.293333 30.293333 0 0 1 26.624-14.805333h357.930667zM470.101333 128c11.306667 0 21.589333 5.717333 26.666667 14.762667l119.296 214.314666h0.042667a24.448 24.448 0 0 1-1.28 26.069334 30.72 30.72 0 0 1-25.386667 12.714666H350.805333a30.72 30.72 0 0 1-25.301333-12.714666 24.448 24.448 0 0 1-1.322667-26.026667l119.296-214.357333A30.336 30.336 0 0 1 470.101333 128z" fill="#ffffff" p-id="6521"></path></svg>