<svg t="1616145546271" class="icon" viewBox="0 0 1024 1024" version="1.1" xmlns="http://www.w3.org/2000/svg" p-id="2580" width="200" height="200"><path d="M286.25408 190.30528h490.25536l-18.0992-7.49568 211.21024 258.57536v-36.20352l-462.848 516.5568-0.52736 0.5888h36.1984L71.51104 420.68992l-0.13824-0.14848v36.20352l141.98272-172.67712c20.79232-25.28256-15.21664-61.72672-36.20352-36.20352L35.16928 420.54144c-9.07776 11.03872-10.25024 25.28256 0 36.20352l470.93248 501.632 0.13824 0.14336c9.1648 9.76896 27.09504 10.1632 36.1984 0l462.848-516.55168 0.52736-0.5888c10.0352-11.19744 9.21088-24.9344 0-36.20352l-108.83584-133.24288-72.9344-89.28768c-10.08128-12.34432-23.9104-37.99552-40.73472-42.624-13.11744-3.6096-29.824-0.91648-43.12064-0.91648h-453.9392c-33.01376 0-33.01376 51.2 0.00512 51.2z" p-id="2581" fill="#ffffff"></path><path d="M713.70752 483.54304l-202.3424 226.33472h36.1984L334.4384 482.62656c-22.6304-24.12544-58.76224 12.15488-36.20352 36.20352l213.13024 227.2512c9.15456 9.76384 27.1104 10.16832 36.1984 0 67.45088-75.43808 134.89664-150.8864 202.3424-226.3296 21.92896-24.52992-14.1568-60.87168-36.1984-36.20864z" p-id="2582" fill="#ffffff"></path></svg>