<svg t="1616145697688" class="icon" viewBox="0 0 1024 1024" version="1.1" xmlns="http://www.w3.org/2000/svg" p-id="4862" width="200" height="200"><path d="M863.7 688.2l-75.4-37.7-243.9 121.9-34.3 17.2-34.3-17.2-243.9-121.9-75.4 37.7c-12.8 6.4-12.8 24.7 0 31.2l345.8 172.9c4.9 2.5 10.7 2.5 15.6 0l345.8-172.9c12.8-6.5 12.8-24.8 0-31.2zM156.5 336.3l345.8 172.9a17.8 17.8 0 0 0 15.6 0l345.8-172.9c12.8-6.4 12.8-24.7 0-31.1l-345.8-173a17.8 17.8 0 0 0-15.6 0l-345.8 173c-12.8 6.4-12.8 24.7 0 31.1z" fill="#ffffff" p-id="4863"></path><path d="M863.4 495.7L790 458.9 544.4 581.7l-34.3 17.2-34.3-17.2-245.6-122.8-73.4 36.7c-13 6.5-13 25 0 31.4l345.4 172.7c4.9 2.5 10.8 2.5 15.7 0L863.3 527c13.1-6.4 13.1-24.9 0.1-31.3z" fill="#ffffff" p-id="4864"></path></svg>