<svg t="1616145387136" class="icon" viewBox="0 0 1024 1024" version="1.1" xmlns="http://www.w3.org/2000/svg" p-id="971" width="200" height="200"><path d="M742.4 281.6c12.8-12.8 25.6-25.6 38.4-44.8 44.8-76.8 32-166.4-32-204.8-38.4-19.2-83.2-19.2-121.6 6.4-64-51.2-166.4-51.2-230.4 0-44.8-25.6-89.6-25.6-128-6.4-64 38.4-76.8 128-32 204.8 12.8 19.2 25.6 32 38.4 44.8C121.6 352 0 569.6 0 768c0 172.8 108.8 256 320 256h384c211.2 0 320-83.2 320-256 0-198.4-121.6-416-281.6-486.4zM704 960H320c-224 0-256-102.4-256-192 0-179.2 108.8-364.8 243.2-428.8l89.6-38.4-76.8-64c-6.4-12.8-19.2-19.2-25.6-32-25.6-51.2-19.2-102.4 6.4-115.2 6.4-6.4 12.8-6.4 19.2-6.4 12.8 0 25.6 6.4 38.4 12.8l38.4 25.6 32-32C467.2 57.6 537.6 57.6 576 89.6l32 25.6 38.4-25.6c19.2-12.8 44.8-12.8 57.6-6.4 25.6 12.8 38.4 64 6.4 115.2-6.4 12.8-12.8 19.2-25.6 32l-70.4 64 89.6 38.4c134.4 64 243.2 256 243.2 428.8 12.8 96-19.2 198.4-243.2 198.4z" p-id="972" fill="#ffffff"></path><path d="M640 608c19.2 0 32-12.8 32-32s-12.8-32-32-32H563.2l57.6-57.6c19.2-12.8 19.2-38.4 6.4-44.8-12.8-12.8-32-12.8-44.8 0L512 512 441.6 441.6c-12.8-12.8-32-12.8-44.8 0-12.8 6.4-12.8 32 0 44.8l57.6 57.6H384c-19.2 0-32 12.8-32 32s12.8 32 32 32h96v64H384c-19.2 0-32 12.8-32 32s12.8 32 32 32h96V832c0 19.2 12.8 32 32 32s32-12.8 32-32v-96H640c19.2 0 32-12.8 32-32s-12.8-32-32-32H544v-64H640z" p-id="973" fill="#ffffff"></path></svg>