<svg t="1617162357141" class="icon" viewBox="0 0 1024 1024" version="1.1" xmlns="http://www.w3.org/2000/svg" p-id="3149" width="200" height="200"><path d="M76.6 531.09l285.26-157.43 272.8 80.86L946.2 296.56v610.73H76.6v-376.2z" fill="#ffffff" p-id="3150"></path><path d="M947.4 916.75H76.6a12.5 12.5 0 0 1-12.5-12.5V536.8a12.5 12.5 0 0 1 25 0v354.95h845.8V296.56a12.5 12.5 0 0 1 25 0v607.69a12.5 12.5 0 0 1-12.5 12.5z" fill="#ffffff" p-id="3151"></path><path d="M363.32 916.75a12.5 12.5 0 0 1-12.5-12.5v-526.4a12.5 12.5 0 0 1 25 0v526.4a12.5 12.5 0 0 1-12.5 12.5zM633.83 916.75a12.5 12.5 0 0 1-12.5-12.5V458.34a12.5 12.5 0 1 1 25 0v445.9a12.5 12.5 0 0 1-12.5 12.51zM76.61 364.53a12.5 12.5 0 0 1-5.36-23.8l252.38-119.68a12.48 12.48 0 0 1 7.76-1L631.48 279l284.7-173a12.5 12.5 0 1 1 13 21.37l-288.86 175.5a12.49 12.49 0 0 1-8.9 1.58l-300.81-59L82 363.32a12.45 12.45 0 0 1-5.39 1.21z" fill="#ffffff" p-id="3152"></path></svg>