<svg t="1617089388324" class="icon" viewBox="0 0 1036 1024" version="1.1" xmlns="http://www.w3.org/2000/svg" p-id="2123" width="200" height="200"><path d="M872.57762 570.329114c22.346532 0 40.778532 17.965367 42.022886 40.402633l0.06481 2.423899v213.717873h89.826836c28.322025 0 42.645063 28.490532 24.213063 45.794835l-1.477671 1.309165-148.933671 141.986025c-12.002835 10.17519-31.212557 10.680709-43.941265 1.529519l-1.944304-1.529519-148.933671-141.986025c-19.702278-16.695089-6.597671-45.626329 20.998481-47.052152l2.151696-0.051848h90.24162V613.155646c0-22.735392 17.654278-41.491443 39.715646-42.761722l2.385013-0.06481h33.610531zM453.670886 0c250.555949 0 453.670886 203.114937 453.670886 453.670886 0 19.144911-1.192506 38.01762-3.499747 56.540355A106.003443 106.003443 0 0 0 872.590582 505.518987h-33.610531l-3.279393 0.051848c-57.681013 1.749873-103.631392 49.579747-103.631392 107.584811v148.894784h-25.431494l-2.890531 0.051848c-64.680506 1.762835-107.895899 62.464-91.991494 116.943393A452.608 452.608 0 0 1 453.670886 907.341772C203.114937 907.341772 0 704.226835 0 453.670886S203.114937 0 453.670886 0zM296.545215 208.96081a32.871696 32.871696 0 0 0-21.905823 15.10076c-7.738329 13.389772-5.262582 28.840506 6.468051 40.337822l117.358177 114.804659h-93.974683c-18.224608 0-32.223595 11.639899-34.038279 28.257215-1.127696 9.656709 1.542481 18.613468 7.517975 25.159291 6.260658 6.869873 15.684051 10.680709 26.520304 10.680709h110.086481v50.253772a25.340759 25.340759 0 0 1-3.447899-0.466633h-107.182987c-9.591899 0-16.837671 2.462785-22.59281 7.595747-10.395544 8.38643-14.336 22.709468-9.643747 34.790076a32.327291 32.327291 0 0 0 30.629266 21.179949h112.782582V664.951899c0 11.367696 3.629367 19.702278 11.45843 26.274025 6.312506 5.081114 13.350886 7.647595 20.60962 7.647595 4.523747 0 9.125266-0.985114 13.687899-2.994228 12.534278-5.845873 19.144911-15.995139 19.144912-29.358987v-109.879089h110.643848c6.636557 0 11.860253-0.985114 15.943291-2.968304 13.571241-5.819949 21.154025-20.648506 18.017215-35.386329-3.694177-15.087797-16.267342-25.211139-31.290329-25.211139h-113.314025V442.782785h108.492151c3.318278 0 6.740253 0 10.123342-0.557367a30.72 30.72 0 0 0 20.622582-12.573165 31.238481 31.238481 0 0 0 5.379241-24.627848c-3.616405-15.917367-16.630278-25.79443-33.973468-25.79443h-93.88395l82.373671-80.662684a1108.680911 1108.680911 0 0 0 36.008506-35.256709c8.658633-8.749367 11.821367-20.726278 8.490127-32.016202-3.175696-10.758481-11.782481-18.769013-23.072405-21.452152-12.184304-2.825722-23.202025 0.466633-32.793924 9.838177-39.10643 38.821266-78.238785 77.124051-117.332253 115.413873-1.062886 1.036962-2.073924 2.24243-2.903494 3.292355a11.976911 11.976911 0 0 0-2.320202-3.292355l-116.295292-113.85843c-2.190582-2.138734-4.458937-4.368203-6.766177-6.066228a32.612456 32.612456 0 0 0-25.625924-6.195848z" fill="#ffffff" p-id="2124"></path></svg>