<svg t="1621304586113" class="icon" viewBox="0 0 1024 1024" version="1.1" xmlns="http://www.w3.org/2000/svg" p-id="10102" width="200" height="200"><path d="M613.4528 33.536L874.24 184.064a204.8 204.8 0 0 1 102.4 177.3824V662.528a204.8 204.8 0 0 1-102.4 177.3568l-260.7872 150.5792a204.8 204.8 0 0 1-204.8 0L147.8912 839.9104a204.8 204.8 0 0 1-102.4-177.3568V361.472a204.8 204.8 0 0 1 102.4-177.3568l260.7616-150.5792a204.8 204.8 0 0 1 204.8 0zM561.792 120.32a102.4 102.4 0 0 0-101.0432 0.768L199.2448 272a102.4 102.4 0 0 0-51.2256 88.704v303.2832a102.4 102.4 0 0 0 51.328 88.7552l260.608 149.9648a102.4 102.4 0 0 0 102.1952 0L822.7072 752.64a102.4 102.4 0 0 0 51.3024-88.7296V354.56a102.4 102.4 0 0 0-52.5312-89.4464L561.792 120.32z m-41.1136 214.3232l-5.7344-7.6288c-6.0416-8.2944-8.6016-15.6928-7.6288-22.2464 0.9472-6.528 4.48-12.1856 10.496-16.9472 6.0672-4.7872 12.1856-5.9904 18.3808-3.584 6.1952 2.3808 11.5456 6.5792 16 12.6464a539.904 539.904 0 0 1 21.9648 37.76h45.824a108.288 108.288 0 0 0 10.496-16.4864c2.8672-5.5808 5.5808-11.0592 8.1152-16.4864 3.4816-9.2672 7.6288-15.2832 12.416-18.176 4.7616-2.8672 11.3152-2.5344 19.5584 0.9728 8.2688 3.4816 13.056 9.1648 14.336 16.9728 1.28 7.7824-0.3072 15.232-4.7872 22.2208l-3.328 5.9648a140.8512 140.8512 0 0 1-2.8672 5.0176h14.7968c14.6176 0 25.5488 3.2 32.6912 9.5744 7.168 6.3488 10.752 18.176 10.752 35.3536v112.3328c0 16.896-3.584 28.1856-10.752 33.92-7.168 5.76-18.048 8.6272-32.6912 8.6272h-188.0832c-14.9504 0-25.4464-2.8672-31.5136-8.6272-6.0672-5.7344-9.0624-17.024-9.0624-33.92v-112.3328c0-17.2032 2.944-28.9792 8.832-35.3536 5.888-6.3744 16.4608-9.5744 31.744-9.5744h20.0448z m195.2512 358.9632c0 16.896-2.8672 28.416-8.6016 34.6368-5.7088 6.2208-15.872 9.344-30.5408 9.344h-158.0288c-7.6288 0-13.9264-0.5888-18.8416-1.6896a22.1952 22.1952 0 0 1-11.9296-6.6816 27.5456 27.5456 0 0 1-6.2208-13.3888 118.0416 118.0416 0 0 1-1.664-22.2208v-99.8912c0-16.256 2.8672-27.392 8.6016-33.4592 5.7088-6.0672 15.744-9.088 30.0544-9.088h158.0288c15.616 0 26.0096 3.0976 31.2576 9.3184 5.248 6.2208 7.8848 17.3056 7.8848 33.2288v99.8912z m-267.3408-103.7312c0 8.96-1.4848 15.7696-4.5312 20.5568-3.0208 4.7872-8.832 7.168-17.408 7.168-7.3216 0-12.672-2.5344-16-7.6288-3.3536-5.0944-5.0176-11.8016-5.0176-20.096v-230.8608c0-5.7344-1.28-9.5488-3.84-11.4688-2.5088-1.8944-6.1952-2.8672-10.9568-2.8672h-35.8144c-6.0672 0-10.1632 0.8192-12.416 2.4064-2.2272 1.5872-3.328 5.5808-3.328 11.9296v232.7808c0 8.9344-1.5104 15.7696-4.5312 20.5568-3.0208 4.7872-8.6528 7.168-16.9472 7.168-8.2688 0-14.08-2.3808-17.4336-7.168-3.328-4.7872-5.0176-11.648-5.0176-20.5568v-244.736c0-10.496 0.5632-18.944 1.664-25.3184 0.768-5.504 2.9696-10.7264 6.4512-15.0528a23.1936 23.1936 0 0 1 13.824-7.168c6.0672-1.1008 14.1824-1.664 24.3712-1.664h61.1072c9.8304 0 17.8176 0.5632 23.8592 1.664 6.0672 1.1008 10.752 3.4816 14.08 7.168 3.328 3.6864 5.504 8.832 6.4512 15.5392 0.9472 6.6816 1.4336 15.616 1.4336 26.752v240.896z m2.8672 95.5904c4.48 8.96 6.528 16.3584 6.1952 22.2464-0.2816 5.888-3.328 11.0336-9.0624 15.5136-6.3488 4.7872-12.6464 5.9904-18.8672 3.584-6.1952-2.3808-11.2128-7.7312-15.0272-16a376.1408 376.1408 0 0 0-16.9472-26.0608c-6.8608-9.7024-13.2864-18.2016-19.328-25.5488l-1.664-1.6896a6.4 6.4 0 0 1-1.2032-1.664c-5.0688 13.056-10.88 25.472-17.408 37.2736a245.8624 245.8624 0 0 1-23.168 34.4064c-7.9616 9.5744-15.4368 14.4896-22.4512 14.848-6.9888 0.256-13.2096-3.0464-18.6112-10.0608-3.4816-4.48-4.7616-10.112-3.84-16.9728 0.9728-6.8608 5.12-14.592 12.4416-23.168a247.1168 247.1168 0 0 0 36.2752-61.6704c9.0624-22.784 13.6192-47.1552 13.3632-71.68V404.48c0-11.1616 1.3568-18.8928 4.0704-23.1936 2.688-4.3008 8.3456-6.4512 16.9472-6.4512 7.296 0 12.4928 1.9968 15.5136 5.9648 2.9952 3.968 4.5312 11.8528 4.5312 23.6544v154.368c0 19.968-2.2272 39.8592-6.6816 59.2896 8.6016-3.5072 16.8448-0.8192 24.832 8.1152 3.4816 4.1728 7.2448 8.96 11.2128 14.336 3.968 5.4272 7.7824 10.9056 11.4432 16.512 3.6864 5.5808 7.0912 10.88 10.2656 16 3.2 5.0688 5.5808 9.2672 7.168 12.416z m126.976-309.7088H510.208c-3.5072 0-5.6832 0.4864-6.4512 1.4336-0.8192 0.9472-1.2032 2.8672-1.2032 5.7344v100.352c0 4.5056 2.4064 6.7072 7.168 6.7072h68.736V375.808z m110.2848 7.168c0-4.7872-2.5344-7.168-7.6288-7.168h-61.1072v114.2272h59.648c3.5072 0 5.888-0.5632 7.168-1.664 1.28-1.1008 1.92-3.7376 1.92-7.8848v-97.5104z m-20.0448 216.064c0-3.5072-2.0992-5.2736-6.2208-5.2736h-129.8432c-1.8944 0-3.2 0.4608-3.84 1.4336-0.6144 0.9472-0.9216 3.0208-0.9216 6.1952v23.424h140.8v-25.8048z m0 66.8928h-140.8256v24.3712c0 1.5872 0.2304 2.6368 0.7168 3.1232 0.4608 0.4608 1.664 0.7168 3.584 0.7168h131.2768c2.5344 0 4.0448-0.3072 4.5312-0.9728 0.4608-0.6144 0.7168-1.8944 0.7168-3.84v-23.3984z m-97.8688-217.472a21.12 21.12 0 0 1 1.4336 13.1328c-0.9472 4.3008-4.1472 7.8848-9.5488 10.752a23.552 23.552 0 0 1-15.5136 2.1504c-4.9152-1.1008-8.832-4.5312-11.6992-10.2656a103.5264 103.5264 0 0 0-11.4688-21.504c-4.2752-5.9648-8.4224-12.032-12.3904-18.176-7.0144-10.496-5.4016-19.1232 4.7616-25.8048 4.48-3.4816 8.832-4.9152 13.1328-4.3008 4.3008 0.64 8.6528 3.6864 13.1328 9.088 5.376 7.6544 10.8288 15.5392 16.2304 23.6544 5.376 8.1152 9.3952 15.232 11.9296 21.248z m111.232-26.7776a132.4032 132.4032 0 0 1-9.0624 19.84c-4.5824 8.064-9.1904 16.128-13.8496 24.1408-4.48 7.0144-8.6016 10.9056-12.416 11.6992-3.84 0.8192-7.9616-0.0768-12.416-2.6112-7.296-4.48-11.2128-9.2672-11.6992-14.336-0.4608-5.0944 1.2032-10.8544 5.0176-17.2288 2.56-3.8144 5.5808-8.6016 9.0624-14.336 3.5072-5.7344 6.5536-12.544 9.088-20.5312 5.0688-13.056 13.5168-17.6896 25.2928-13.8752 12.0832 3.5072 15.744 12.5696 10.9824 27.2384z" p-id="10103" fill="#ffffff"></path></svg>
