<svg t="1621304563094" class="icon" viewBox="0 0 1024 1024" version="1.1" xmlns="http://www.w3.org/2000/svg" p-id="9716" width="200" height="200"><path d="M412.7744 390.4512l0-51.2c0-7.4752 2.1504-14.4384 6.3488-20.7872 1.024-1.024 1.6384-2.1504 1.6384-3.1744-1.024-3.1744-14.9504-4.8128-41.5744-4.8128 2.1504 7.4752 3.1744 18.1248 3.1744 31.9488l0 49.5616c-25.6 0-42.7008-1.024-51.2-3.1744l0 35.2256c4.3008-1.024 9.6256-2.1504 15.9744-3.1744 5.3248 0 17.1008 0 35.2256 0l0 78.4384c-28.7744 9.6256-46.8992 14.9504-54.3744 15.9744l7.9872 41.5744c1.024 0 5.3248-2.1504 12.8-6.3488 11.776-7.4752 22.9376-13.824 33.5872-19.2512l0 84.7872c0 9.6256-3.1744 14.9504-9.6256 15.9744-5.3248 2.1504-18.1248 1.6384-38.4-1.6384 9.6256 12.8 13.824 25.6 12.8 38.4 46.8992-3.1744 68.8128-13.312 65.6384-30.4128L412.7744 519.9872c-5.3248 0 9.6256-6.3488 44.8512-19.2512l0-36.7616c-2.1504 1.024-5.8368 3.1744-11.1616 6.3488-17.1008 8.4992-28.2624 13.824-33.5872 15.9744l0-67.1744c18.1248 0 29.2864 0 33.5872 0 6.3488 1.024 11.776 2.1504 15.9744 3.1744l0-35.2256c-4.3008 1.024-9.6256 2.1504-15.9744 3.1744C443.1872 390.4512 432.0256 390.4512 412.7744 390.4512z" p-id="9717" fill="#ffffff"></path><path d="M550.4 619.2128c9.6256 15.9744 15.9744 34.0992 19.2512 54.3744l30.4128-7.9872c-5.3248-20.2752-12.288-38.4-20.7872-54.3744L550.4 619.2128z" p-id="9718" fill="#ffffff"></path><path d="M660.7872 625.5616c-30.9248-25.6-50.176-73.6256-57.5488-143.9744l23.9616 0c22.4256 0 36.2496 0 41.5744 0 6.3488 1.024 11.1616 2.1504 14.4384 3.1744l0-31.9488c-9.6256 2.1504-28.7744 3.1744-57.5488 3.1744l-23.9616 0c-2.1504-31.9488-2.6624-62.3616-1.6384-91.2384 26.624-4.3008 47.4112-4.8128 62.3616-1.6384 2.1504 0 3.6864 0 4.8128 0 1.024 0-3.1744-8.4992-12.8-25.6-4.3008-7.4752-6.9632-12.8-7.9872-15.9744-18.1248 6.3488-53.8624 13.312-107.2128 20.7872-24.576 2.1504-45.8752 2.1504-64 0 1.024 3.1744 1.6384 10.6496 1.6384 22.4256 0 10.6496 0 28.2624 0 52.8384l0 195.1744c1.024 13.824-3.1744 23.9616-12.8 30.4128l15.9744 31.9488c22.4256-24.576 49.0496-49.0496 79.9744-73.6256l-12.8-35.2256-38.4 41.5744L508.8256 481.5872l64 0c9.6256 82.1248 29.9008 138.1376 60.8256 168.0384 15.9744 15.9744 28.7744 22.9376 38.4 20.7872 7.4752-1.1264 18.1248-21.2992 31.9488-60.8256-9.6256-1.024-20.7872-8.4992-33.5872-22.4256C670.4128 609.5872 667.136 622.3872 660.7872 625.5616zM508.8256 455.9872l0-83.1488 59.1872-4.8128c0 35.2256 1.024 64.512 3.1744 87.9616L508.8256 455.9872z" p-id="9719" fill="#ffffff"></path><path d="M972.8 436.9408 972.8 230.4c0-56.32-43.7248-102.4-97.0752-102.4L148.1728 128C94.8224 128 51.2 174.08 51.2 230.4l0 206.5408c41.7792 5.7344 72.704 27.3408 72.704 75.0592s-31.0272 69.3248-72.704 75.0592L51.2 793.6c0 56.32 43.6224 102.4 96.9728 102.4l727.552 0c53.3504 0 97.0752-46.08 97.0752-102.4L972.8 587.0592c-41.7792-5.7344-72.8064-27.3408-72.8064-75.0592C899.9936 464.384 931.0208 442.6752 972.8 436.9408zM921.6 625.7664 921.6 793.6c0 27.7504-20.992 51.2-45.8752 51.2l-94.9248 0 0-51.2c0-14.1312-11.4688-25.6-25.6-25.6-14.1312 0-25.6 11.4688-25.6 25.6l0 51.2-435.2 0 0-51.2c0-14.1312-11.4688-25.6-25.6-25.6-14.1312 0-25.6 11.4688-25.6 25.6l0 51.2-95.0272 0c-24.7808 0-45.7728-23.4496-45.7728-51.2L102.4 625.7664c46.2848-19.968 72.704-60.3136 72.704-113.7664 0-53.4528-26.5216-93.7984-72.704-113.7664L102.4 230.4c0-27.7504 20.992-51.2 45.7728-51.2l95.0272 0 0 51.2c0 14.1312 11.4688 25.6 25.6 25.6 14.1312 0 25.6-11.4688 25.6-25.6l0-51.2 435.2 0 0 51.2c0 14.1312 11.4688 25.6 25.6 25.6 14.1312 0 25.6-11.4688 25.6-25.6l0-51.2 94.9248 0c24.8832 0 45.8752 23.4496 45.8752 51.2l0 167.8336c-46.2848 19.968-72.8064 60.3136-72.8064 113.7664C848.7936 565.4528 875.3152 605.7984 921.6 625.7664z" p-id="9720" fill="#ffffff"></path></svg>
