<svg t="1621304526488" class="icon" viewBox="0 0 1024 1024" version="1.1" xmlns="http://www.w3.org/2000/svg" p-id="9391" width="200" height="200"><path d="M954.7320888888889 548.2470718577778c0-111.33029148444444-88.02860259555555-214.89335296000002-194.18074111999996-214.89335296000002-46.60337777777777 0-90.61767850666665 31.068918897777777-124.27567331555554 62.13783665777777-23.301688888888886 20.71261184-165.70089927111113 113.91936739555555-227.8387359288889 116.50844444444445-134.63198037333333 5.17815296-258.90765482666666-59.548760746666666-297.74380259555556-194.18074111999996 0 0-18.123535928888888-33.657994808888894-20.712612977777777-88.02860259555555 0-23.301688888888886-15.534458879999999-20.71261184-23.301688888888886 0-2.5890770488888886 7.767230008888888-15.534458879999999 25.890765937777775-18.123534791111112 69.90506666666667 0 18.123535928888888-2.5890770488888886 38.836147768888885 0 62.137837795555555 12.945382968888888 287.38749667555555 243.37319480888888 520.4043855644444 510.0480785066667 507.4590025955556 134.63198037333333-5.17815296 253.7295007288889-82.85044963555556 339.16902741333337-183.8244352l5.17815296-5.17815296c28.47984184888889-33.657994808888894 51.78153073777778-80.26137258666665 51.78153073777778-132.04290332444444zM361.83356074666665 170.24189667555555c90.61767850666665-10.35630592 168.28997518222224 56.95968369777778 176.0572051911111 142.39920924444445 2.5890770488888886 23.301688888888886 0 44.014300728888884-7.767230008888888 62.137837795555555-67.31598961777779 75.08321962666668-176.0572051911111 69.90506666666667-176.0572051911111 67.31598961777779-85.43952554666666-7.767230008888888-119.09752149333333-49.19245482666667-137.22105628444444-85.43952554666666 0-2.5890770488888886 0-7.767230008888888-2.5890770488888886-10.356307057777778-7.767230008888888-85.43952554666666 56.95968369777778-168.28997518222224 147.57736334222224-176.05720405333332z m0 0" fill="#ffffff" p-id="9392"></path></svg>
