<svg t="1616145632693" class="icon" viewBox="0 0 1024 1024" version="1.1" xmlns="http://www.w3.org/2000/svg" p-id="4036" width="200" height="200"><path d="M519.5 774.6c-38.9 0-75.2-15-102.5-42.2-27.2-27.2-42.2-63.6-42.2-102.4h20c0 33.5 12.9 64.8 36.4 88.3 23.4 23.4 54.8 36.3 88.3 36.3s64.9-12.9 88.3-36.3 36.3-54.8 36.3-88.3-12.9-64.9-36.3-88.3c-23.4-23.4-54.8-36.3-88.3-36.3v-20c38.8 0 75.2 15 102.4 42.2 27.2 27.2 42.2 63.6 42.2 102.4s-15 75.2-42.2 102.4-63.6 42.2-102.4 42.2z" fill="#ffffff" p-id="4037"></path><path d="M500.5 172.3h20v664.1h-20z" fill="#ffffff" p-id="4038"></path><path d="M519.5 505.4c-38.7 0-75-14-102.2-39.3-27.4-25.5-42.4-59.7-42.4-96.3s15.1-70.8 42.4-96.3c27.2-25.4 63.5-39.3 102.2-39.3s75 14 102.2 39.3c27.4 25.5 42.4 59.7 42.4 96.3h-20c0-31-12.8-60-36.1-81.7-23.5-21.9-54.9-33.9-88.5-33.9s-65.1 12.1-88.5 33.9c-23.3 21.7-36.1 50.7-36.1 81.7s12.8 60 36.1 81.7c23.5 21.9 54.9 33.9 88.5 33.9v20z" fill="#ffffff" p-id="4039"></path></svg>