<svg t="1617700299092" class="icon" viewBox="0 0 1024 1024" version="1.1" xmlns="http://www.w3.org/2000/svg" p-id="1117" width="200" height="200"><path d="M553.024 617.792 483.136 585.408l0.32-39.424c0 0 33.472-26.368 52.096-94.208 11.328-6.208 25.6-8.064 27.776-70.208 0.96-27.584-16.192-24.64-16.512-24.576 0.064-1.344 0.192-9.6 0.192-51.712 0 7.744 17.536-106.816-126.08-106.816 0 0-0.128 0-0.512 0-0.192 0-0.32 0-0.512 0l0 0.064C305.6 200.576 311.424 255.296 311.424 255.296c0 0.128 0.064 0.256 0.064 0.32-14.72 8.768-18.624 22.272-18.624 49.728 0 42.112 0.064 50.368 0.192 51.648C292.736 356.928 275.584 353.984 276.544 381.568c2.176 62.144 16.448 64.064 27.776 70.208C322.816 519.616 355.84 545.984 355.84 545.984l0.32 39.36L250.496 634.432c0 0-53.056 19.392-52.8 75.904l0.32 87.168L352 797.504C380.352 727.552 437.952 648.704 553.024 617.792z" p-id="1118" fill="#ffffff"></path><path d="M936.064 717.568 681.6 497.984l0 126.272c-37.632 0.64-70.592 5.76-100.096 13.696-115.136 30.976-172.672 109.76-201.088 179.776-16 39.488-22.912 76.032-25.856 99.328L355.2 917.056c11.52-57.792 70.592-85.696 125.056-99.328 51.008-12.736 97.984-12.928 97.984-12.928l103.424 0 0 12.928 0 117.696L936.064 717.568z" p-id="1119" fill="#ffffff"></path></svg>