<svg t="1619150064267" class="icon" viewBox="0 0 1024 1024" version="1.1" xmlns="http://www.w3.org/2000/svg" p-id="34115" width="200" height="200"><path d="M370.029714 682.203429a30.500571 30.500571 0 0 1 28.16-29.037715h26.843429v125.293715h-26.916572a30.939429 30.939429 0 0 1-28.16-29.110858l0.073143-67.145142zM680.009143 564.224a55.149714 55.149714 0 0 1 35.254857-20.114286 33.28 33.28 0 0 1 28.16 9.142857c9.289143 8.411429 16.603429 19.090286 21.284571 30.866286 5.851429 14.116571 10.605714 28.818286 13.970286 43.812572 3.876571 16.749714 6.729143 33.792 8.850286 50.980571 1.609143 16.384-0.804571 34.523429 1.024 50.907429 0.731429 16.457143 0.146286 32.768-1.024 49.152a203.337143 203.337143 0 0 1-10.678857 45.421714 93.988571 93.988571 0 0 1-16.091429 36.425143 62.683429 62.683429 0 0 1-19.309714 23.625143 25.6 25.6 0 0 1-22.820572 5.558857 42.934857 42.934857 0 0 1-24.722285-18.285715 92.306286 92.306286 0 0 0-35.254857-25.526857c-15.725714-7.314286-31.597714-12.726857-47.323429-18.139428a268.288 268.288 0 0 0-52.955429-10.971429 565.248 565.248 0 0 0-49.444571-7.241143 174.518857 174.518857 0 0 1-35.547429-7.387428 20.041143 20.041143 0 0 1-15.872-7.314286V651.556571a24.429714 24.429714 0 0 1 14.262858-10.898285 106.788571 106.788571 0 0 1 30.134857-7.314286c12.434286-1.828571 26.550857-5.412571 42.422857-7.387429 16.018286-3.218286 31.890286-7.533714 47.396571-12.580571 16.603429-5.193143 32.402286-11.776 47.542857-20.041143 14.336-8.923429 27.867429-18.651429 40.740572-29.110857zM519.68 842.678857a80.457143 80.457143 0 0 1 5.266286 12.726857c1.974857 4.973714 4.461714 10.020571 7.021714 14.555429l10.752 16.530286c5.558857 7.533714 10.825143 15.36 15.872 23.625142 5.12 9.142857 8.704 14.409143 12.141714 21.796572a18.432 18.432 0 0 1 1.828572 16.457143 12.8 12.8 0 0 1-12.288 7.387428h-24.722286a49.737143 49.737143 0 0 1-15.872-3.730285 27.209143 27.209143 0 0 1-14.116571-10.825143 71.021714 71.021714 0 0 1-13.970286-18.212572 324.681143 324.681143 0 0 1-15.872-25.526857 96.329143 96.329143 0 0 1-14.116572-31.012571 51.419429 51.419429 0 0 1-2.413714-21.869715 30.939429 30.939429 0 0 1 0-18.212571c3.437714 0 5.12 1.828571 8.557714 1.828571a51.931429 51.931429 0 0 0 7.972572 1.755429c5.266286 0 8.704 1.755429 14.116571 1.755429 5.12 1.755429 8.850286 1.755429 13.970286 3.657142 3.437714 1.828571 7.021714 1.828571 10.605714 3.730286 1.024 2.194286 2.852571 3.584 5.266286 3.584z" fill="#ffffff" p-id="34116"></path><path d="M476.452571 541.696c-128.658286 0-233.325714-107.593143-233.325714-239.835429S347.794286 62.025143 476.452571 62.025143s233.325714 107.593143 233.325715 239.835428-104.667429 239.835429-233.325715 239.835429z m0-406.528c-88.356571 0-160.182857 74.752-160.182857 166.692571s71.826286 166.692571 160.182857 166.692572 160.182857-74.752 160.182858-166.692572c0-91.867429-71.826286-166.692571-160.182858-166.692571z" fill="#ffffff" p-id="34117"></path><path d="M161.865143 896.438857a36.571429 36.571429 0 0 1-36.571429-36.571428c0-211.382857 166.985143-383.268571 372.224-383.268572a36.571429 36.571429 0 0 1 0 73.142857c-164.864 0-299.081143 139.117714-299.081143 310.125715a36.571429 36.571429 0 0 1-36.571428 36.571428z" fill="#ffffff" p-id="34118"></path></svg>