<svg t="1618910250093" class="icon" viewBox="0 0 1024 1024" version="1.1" xmlns="http://www.w3.org/2000/svg" p-id="15359" width="200" height="200"><path d="M989.696 590.336c-1.536-2.56-3.072-4.608-5.12-6.144C945.664 510.976 855.552 514.048 783.36 522.24c-37.376 4.096-75.776 11.264-111.104 25.088 32.768-51.2 52.736-105.984 56.32-174.592 4.608-87.552 10.752-197.632-53.76-266.24-26.112-28.16-60.928-41.472-98.816-45.568-41.472-4.096-94.208-5.632-132.096 14.336-79.36 41.984-114.688 161.28-134.144 242.176v1.024C257.024 380.928 196.608 419.328 119.296 445.44c-61.44 20.48-103.424 58.88-110.592 125.952-6.144 60.416 22.016 134.144 64.512 177.664 50.688 52.224 138.24 58.368 206.336 58.368 22.016 0 22.016-34.816 0-34.304-66.048 0-152.576-4.608-194.048-63.488-37.376-52.736-64.512-134.656-20.992-191.488C99.328 473.088 171.52 468.48 220.16 440.832c23.552-13.824 45.056-29.696 65.536-47.616-9.216 17.92-11.264 37.376 1.024 53.248-13.824 9.216-27.136 17.92-40.96 26.624-19.456 11.776-36.864 15.872-59.904 15.872-22.016 0-22.016 34.816 0 34.304 22.528 0 43.52-2.048 63.488-12.8 23.04-11.776 44.544-28.16 66.56-42.496 3.072-2.048 4.608-4.096 6.144-6.656 14.336-0.512 29.696-6.656 40.448-14.848 22.528-16.896 31.744-43.52 31.744-70.656 2.048-1.024 4.096-3.072 5.632-5.12 22.016-30.72 53.248-59.392 60.416-97.792 4.096-21.504-29.184-31.232-33.28-9.216-5.12 28.672-27.136 52.224-45.568 75.264-3.584-5.12-10.24-9.216-17.92-7.68-9.216 1.536-19.456 5.632-30.208 12.288 2.048-2.048 3.584-4.608 5.632-6.656 2.56-3.072 3.584-6.144 4.096-9.728 0-0.512 0.512-0.512 0.512-1.024 16.384-68.608 45.056-172.032 107.008-214.528 30.208-20.992 75.776-19.456 112.128-17.408 47.104 3.072 83.968 20.992 107.52 62.976 36.352 64.512 29.184 158.208 23.552 229.888C686.08 475.136 645.632 536.064 588.8 599.552c-52.736-15.36-109.568-27.648-162.304-5.12-44.544 18.944-70.656 60.416-75.264 108.032-10.24 110.592 86.016 194.56 183.808 222.72 114.176 32.768 258.56 29.184 355.328-46.08 43.008-33.28 86.528-74.24 101.888-128 14.848-52.224 20.48-110.592-2.56-160.768zM348.672 412.16c-6.656 8.192-36.352 26.624-33.792 3.584 2.048-19.456 25.088-38.912 45.056-47.104 0.512 14.848-1.536 30.72-11.264 43.52z m512.512 445.952c-77.312 55.808-184.32 58.368-275.456 43.008-83.456-14.336-172.032-59.392-195.584-147.456-13.824-51.712 2.56-112.128 57.344-130.56 47.616-15.872 97.792 0 143.872 13.312 3.072 1.024 6.144 1.024 8.192 0.512 4.096 0 8.192-1.536 11.776-5.632 38.912-47.104 97.28-64 156.16-72.192 64-9.216 156.16-23.04 189.952 47.104 1.024 2.048 2.56 4.096 4.096 5.12 40.448 94.208-26.624 193.536-100.352 246.784z" fill="#ffffff" p-id="15360"></path><path d="M558.08 679.424c-16.896-2.56-30.208-9.216-41.472-22.528-14.336-16.896-38.912 7.68-24.576 24.576s34.816 28.16 56.832 31.232c9.216 1.024 18.432-2.048 20.992-12.288 2.56-7.68-2.56-19.456-11.776-20.992zM703.488 652.288c-30.208 18.944-71.168 20.992-105.472 27.648-22.016 4.096-12.8 37.376 9.216 33.28 37.888-7.168 80.384-10.24 113.664-30.72 18.944-12.288 1.536-41.984-17.408-30.208z" fill="#ffffff" p-id="15361"></path><path d="M775.168 618.496c-9.216 6.144-18.432 10.752-29.184 13.824-21.504 6.144-12.288 39.424 9.216 33.28 13.312-3.584 26.112-9.728 37.376-17.408 7.68-5.12 11.264-14.848 6.144-23.552-4.608-7.168-15.872-11.264-23.552-6.144z" fill="#ffffff" p-id="15362"></path></svg>