<svg t="1618208524331" class="icon" viewBox="0 0 1024 1024" version="1.1" xmlns="http://www.w3.org/2000/svg" p-id="2075" width="200" height="200"><path d="M318 249c10.6 9.8 24.7 15.3 39.4 15.3h290c20.6 0 39.5-10.7 49.6-27.9 68.3-117.4 72.8-157.6 59-169-28.1-23.4-123 80.7-261.4 74.2-47.6-2.2-88.7-16.9-121.8-34.3-27.4-14.3-61.9-4.4-76.7 22-5.1 9.1-9.2 19.8-10.9 32-4.7 32 7.9 64.6 32.8 87.7zM920.4 642.2L816.3 423.4c-30.4-63.8-98.7-106.9-157.7-106.9h-293c-59 0-127.4 43.1-157.7 106.9L103.7 642.2c-71.5 150.1-45.2 316.7 85.1 316.7h646.6c130.2 0 156.5-166.6 85-316.7zM681.5 495l-97.3 116.7c-6.5 7.8-0.7 19.5 9.7 19.5H645c9.3 0 15.3 9.4 11.1 17.4l-18.4 34.7c-2.1 4-6.4 6.5-11.1 6.5h-58.2c-6.9 0-12.5 5.4-12.5 12s5.6 12 12.5 12h72.7c8.9 0 14.9 8.7 11.5 16.6l-15.1 34.5c-1.9 4.4-6.5 7.3-11.5 7.3h-57.6c-6.9 0-12.5 5.4-12.5 12v52c0 6.6-5.6 12-12.5 12h-54.5c-6.9 0-12.5-5.4-12.5-12v-52c0-6.6-5.6-12-12.5-12H389c-6.9 0-12.5-5.4-12.5-12v-34.5c0-6.6 5.6-12 12.5-12h75.2c6.9 0 12.5-5.4 12.5-12s-5.6-12-12.5-12H389c-6.9 0-12.5-5.4-12.5-12V643c0-6.6 5.6-12 12.5-12h49.8c10.6 0 16.3-11.9 9.6-19.7L348.2 496c-6.8-7.8-1-19.7 9.6-19.7h56.3c3.6 0 7 1.5 9.3 4l86.4 93.8c5.2 5.6 14.3 5.3 19.1-0.6l76-93.6c2.4-2.9 6-4.6 9.8-4.6h57c10.5 0.2 16.3 11.8 9.8 19.7z" fill="#ffffff" p-id="2076"></path></svg>