<svg t="1617000477631" class="icon" viewBox="0 0 1024 1024" version="1.1" xmlns="http://www.w3.org/2000/svg" p-id="738" width="200" height="200"><path d="M647.76 455.76c0.65-0.65 1.28-1.31 1.92-2a255.18 255.18 0 0 0-113.26 56.67 190.55 190.55 0 0 0 111.34-54.67zM670.12 839.76L512 681.37l45.18-45.25 112.94 113.14 85.74-85.89A382.42 382.42 0 0 0 512 576q-15.36 0-30.43 1.19A254.82 254.82 0 0 0 448 704c0 141.38 114.62 256 256 256a255.23 255.23 0 0 0 184.05-78.09A382.75 382.75 0 0 0 801.7 708zM652 534.32a447.27 447.27 0 0 1 149.25 83.58l49.58-49.66 12.9 12.92 0.28 0.28 32 32.06-32 32.06-0.28 0.28L847 662.57a447.6 447.6 0 0 1 88.46 150.9A255 255 0 0 0 960 704c0-131.65-99.38-240.07-227.21-254.38a257.36 257.36 0 0 1-80.79 84.7z" p-id="739" fill="#ffffff"></path><path d="M536.42 510.46A195.07 195.07 0 0 1 512 512a192 192 0 1 1 137.69-58.21 257.16 257.16 0 0 1 83.1-4.17A254.74 254.74 0 0 0 768 320c0-141.38-114.62-256-256-256S256 178.62 256 320a255.76 255.76 0 0 0 116 214.32C193.13 593.12 64 761.48 64 960h64c0-201.84 155.72-367.3 353.57-382.81a257.17 257.17 0 0 1 54.85-66.73zM888.05 881.91A385.67 385.67 0 0 1 896 960h64a447.31 447.31 0 0 0-24.54-146.53 256.53 256.53 0 0 1-47.41 68.44z" p-id="740" fill="#ffffff"></path><path d="M755.86 663.36l44-44 0.17-0.17 1.25-1.25A447.27 447.27 0 0 0 652 534.32a257.36 257.36 0 0 0 80.77-84.7 257.16 257.16 0 0 0-83.1 4.17c-0.64 0.66-1.27 1.32-1.92 2a190.55 190.55 0 0 1-111.34 54.7 257.17 257.17 0 0 0-54.85 66.73Q496.63 576 512 576a382.42 382.42 0 0 1 243.86 87.36zM847 662.57l-41.09 41.16-4.21 4.27a382.75 382.75 0 0 1 86.35 174 256.53 256.53 0 0 0 47.41-68.45A447.6 447.6 0 0 0 847 662.57z" p-id="741" fill="#ffffff"></path></svg>