<svg t="1618209378519" class="icon" viewBox="0 0 1024 1024" version="1.1" xmlns="http://www.w3.org/2000/svg" p-id="2446" width="200" height="200"><path d="M406.755556 476.728889v-153.6H318.577778c64.853333-65.422222 131.413333-131.413333 193.991111-195.128889l192.284444 192.284444h-89.884444v155.875556c-69.973333 0.568889-135.964444 0.568889-208.213333 0.568889z" p-id="2447" fill="#ffffff"></path><path d="M902.826667 474.453333c0-13.084444-17.066667-34.702222-29.013334-36.977777-26.737778-5.688889-55.182222-1.706667-87.04-1.706667v80.213333H246.897778V434.062222c-31.288889 0-58.026667 0.568889-84.764445 0-30.151111 0-42.666667 15.928889-42.666666 44.373334v372.622222c0 29.013333 13.653333 43.804444 43.235555 43.804444h694.044445c30.151111 0 46.648889-13.653333 46.648889-44.942222 1.137778-124.586667 1.706667-249.742222-0.568889-375.466667z m-292.977778 150.186667l-26.168889 43.804444c-2.844444 5.12 0.568889 11.377778 6.826667 11.377778h3.413333c3.982222 0 7.395556 3.413333 7.395556 7.395556v21.617778c0 3.982222-3.413333 7.395556-7.395556 7.395555h-35.271111a7.395556 7.395556 0 0 0-6.826667 3.982222l-2.275555 4.551111c-0.568889 1.137778-1.137778 2.275556-1.137778 3.982223 0 3.982222 3.413333 7.395556 7.395555 7.395555h37.546667c3.982222 0 7.395556 3.413333 7.395556 7.395556v22.186666c0 3.982222-3.413333 7.395556-7.395556 7.395556h-37.546667c-3.982222 0-7.395556 3.413333-7.395555 7.395556v23.893333c0 3.982222-3.413333 7.395556-7.395556 7.395555h-56.32c-3.982222 0-7.395556-3.413333-7.395555-7.395555v-23.893333c0-3.982222-3.413333-7.395556-7.395556-7.395556h-39.253333c-3.982222 0-7.395556-3.413333-7.395556-7.395556v-22.186666c0-3.982222 3.413333-7.395556 7.395556-7.395556h38.684444c3.982222 0 7.395556-3.413333 7.395556-7.395555 0-1.706667-0.568889-2.844444-1.137778-3.982223l-2.844444-4.551111c-1.137778-2.275556-3.982222-3.413333-6.257778-3.413333h-35.84c-3.982222 0-7.395556-3.413333-7.395556-7.395556v-21.617777c0-3.982222 3.413333-7.395556 7.395556-7.395556h3.413333c5.688889 0 9.671111-6.257778 6.257778-11.377778l-26.737778-43.804444c-2.844444-5.12 0.568889-11.377778 6.257778-11.377778H483.555556c2.844444 0 5.688889 1.706667 6.826666 4.551111l21.617778 47.217778h2.275556c1.137778-3.413333 2.275556-6.257778 2.844444-9.671111 1.137778-3.413333 2.275556-6.257778 3.413333-9.102222l12.515556-29.013334a7.395556 7.395556 0 0 1 6.826667-4.551111h63.146666c6.257778 0 9.671111 6.257778 6.826667 11.377778z" p-id="2448" fill="#ffffff"></path></svg>